<?xml version="1.0" encoding="utf-8"?>
<!-- Generator: Adobe Illustrator 25.0.1, SVG Export Plug-In . SVG Version: 6.00 Build 0)  -->
<svg version="1.1" id="Capa_1" xmlns="http://www.w3.org/2000/svg" xmlns:xlink="http://www.w3.org/1999/xlink" x="0px" y="0px"
	 viewBox="0 0 1080 1080" style="enable-background:new 0 0 1080 1080;" xml:space="preserve">
<style type="text/css">
	.st0{fill:#F2F3F2;}
	.st1{fill:#7FA76E;}
</style>
<path class="st0" d="M147.2,556.5c0-22,0-43.9,0-65.9c1.9-0.1,2.2-1.4,2.3-2.9c0.2-3.1,0.2-6.2,0.5-9.2c0.5-4.9,0.8-10,1.8-14.8
	c1.5-7,2.7-14,3.9-21c1.7-9.7,4.5-19.1,7-28.6c2.3-8.6,5.3-17,8.5-25.3c5.3-13.7,10.7-27.4,17.7-40.3c4.6-8.5,9.1-16.9,14-25.2
	c4.9-8.2,9.9-16.2,15.5-23.9c5.2-7.1,10.6-14.1,16.2-20.9c4.7-5.8,9.5-11.5,14.6-16.9c9.7-10.4,19.9-20.3,30.8-29.5
	c4.4-3.7,8.6-7.7,13.1-11.1c6.4-4.8,12.7-9.8,19.3-14.2c6.4-4.3,12.8-8.7,19.3-12.8c7.1-4.5,14.6-8.3,22-12.4
	c3.8-2.1,7.7-4.2,11.7-6c9-4,17.8-8.4,27.2-11.6c6.7-2.3,13.1-5.5,20-7.3c1.9-0.5,4-0.9,5.9-1.7c4.2-2,8.9-2.5,13.3-4.1
	c2.7-1,5.8-1.1,8.6-2c5.5-1.8,11.1-2.8,16.7-4c5.6-1.2,11.2-2.5,16.8-2.8c5.7-0.3,11.1-2.2,16.7-2.1c1.9,0,3.8-0.1,5.7-0.1
	c1.7,0,2.9-0.6,3.1-2.5c17.9,0,35.8-0.1,53.7-0.1c4.9,0,9.7,0.1,14.6,0.1c-0.1,1.4,0.7,2.1,2,2c5.2-0.1,10.3,0.9,15.4,1.3
	c5.9,0.4,11.5,2.2,17.3,2.7c2.6,0.2,5.6,0.3,8.1,1.4c3.5,1.5,7.3,1.6,10.9,2.5c5.4,1.4,10.8,2.5,16.1,4c5.7,1.7,11.5,3.6,17.2,5.3
	c5.4,1.6,10.6,3.6,15.7,5.7c5.6,2.2,11.1,4.5,16.7,6.7c9.6,3.9,18.5,8.9,27.7,13.5c5.6,2.8,11.2,6,16.6,9.2
	c6.1,3.7,12.1,7.5,18.1,11.5c3.7,2.4,7.2,5.3,10.9,7.7c3.1,2.1,6,4.4,8.9,6.6c3.1,2.3,6.3,4.6,9.2,7.3c4.8,4.7,10.4,8.5,15.4,13
	c4,3.5,7.7,7.2,11.4,11c5.8,6.1,12,11.7,17.2,18.4c5.2,6.7,11.1,12.9,16.4,19.6c7.1,8.8,13.2,18.3,19.4,27.7
	c9,13.5,16.6,27.8,23.7,42.3c3.8,7.9,7.3,16,10.5,24.2c2.8,7.1,5.6,14.1,7.8,21.4c1.5,5,2.8,10,4.5,14.9c1.7,5,2.5,10.3,4.1,15.3
	c0.9,3,1.6,6.3,2,9.5c0.5,3.4,0.8,7,1.8,10.2c1.4,4.4,1.8,9,2.3,13.4c0.8,7.3,2.2,14.6,2,21.9c0,1.7,0.9,2.8,2.7,2.9
	c0,22,0,43.9,0,65.9c-1.6,0-2.2,1-2.3,2.5c-0.5,5.6-0.8,11.3-1.7,16.9c-0.9,5.5-1,11.1-2.4,16.5c-1.6,6.1-2.5,12.4-3.9,18.5
	c-1.6,7.2-3.8,14.4-5.3,21.6c-1.4,6.4-3.7,12.5-5.9,18.7c-2.8,7.7-5.9,15.3-9,22.9c-5,12.3-11.1,24.1-17.4,35.8
	c-5.5,10.1-11.6,19.9-17.9,29.4c-4.8,7.3-10.2,14.1-15.4,21.1c-5.5,7.4-11.6,14.3-17.6,21.2c-9.3,10.7-19.4,20.7-30.4,29.8
	c-6.5,5.3-12.4,11.3-19.1,16.5c-6,4.6-11.8,9.4-18.1,13.4c-12.1,7.7-23.9,15.9-36.8,22.4c-9.6,4.9-19.3,9.7-29.1,14.1
	c-6.1,2.8-12.4,5.1-18.7,7.5c-4.1,1.6-8.2,3.6-12.4,4.6c-4.1,1-8.1,2.4-12.1,3.7c-4.8,1.4-9.6,2.5-14.4,3.7c-2.1,0.5-4,2-6.1,1.8
	c-3.9-0.4-7.4,1.3-11,2.1c-6.6,1.5-13.3,2.9-19.9,3.6c-6.8,0.8-13.6,3.2-20.6,2.2c-2.1-0.3-3.8,0.4-4.3,2.7c-22.8,0-45.6,0-68.4-0.1
	c-0.2-2-1.4-2.6-3.3-2.6c-3.7,0-7.5,0.5-11-0.8c-5-1.8-10.3-1-15.5-2.5c-5-1.4-10.4-1.7-15.6-2.7c-2.6-0.5-4.9-1.8-7.4-1.8
	c-5.5-0.1-10.5-2.5-15.8-3.7c-4.5-1-9-2.6-13.5-3.9c-6.7-2-13.3-4.1-19.7-6.7c-10-4-19.9-8.1-29.6-12.8
	c-13.7-6.7-27.2-13.6-40.2-21.8c-12.1-7.6-23.7-16.1-35.2-24.6c-4.8-3.6-9.1-8-13.8-11.8c-5-4.1-9.6-8.6-14.3-13.1
	c-6.1-5.8-12.4-11.5-17.6-18.1c-6.2-7.8-13-15.2-19.2-23.1c-6.6-8.5-12.7-17.4-18.6-26.3c-7.1-10.6-13.3-21.7-19.1-33.1
	c-5.8-11.5-11.2-23.3-15.9-35.2c-2.2-5.5-4.2-11.1-6.1-16.7c-1.9-5.5-4-11.1-5.3-16.8c-1.2-4.9-2.4-9.7-3.9-14.5
	c-1.8-6-2.3-12.1-4-18.1c-1.5-5.4-2.4-11-2.9-16.5c-0.7-6.9-2.4-13.8-2-20.8C150.2,559.4,149.5,557.6,147.2,556.5z M865.7,521.5
	c-0.5-182-150.4-331.2-334.1-330.2c-180.5,1-331.6,148-330.2,335.2c1.3,180.4,149.2,330.1,333.3,329.4
	C716,855.2,866.4,707.6,865.7,521.5z"/>
<path class="st1" d="M865.7,521.5c0.8,186-149.7,333.7-331,334.4c-184.1,0.7-331.9-149-333.3-329.4
	c-1.4-187.2,149.7-334.2,330.2-335.2C715.2,190.3,865.2,339.5,865.7,521.5z M533.6,675.2c-46.6,0-93.2,0-139.8,0
	c-4.5,0-4.7-0.1-4.6-4.8c0.3-35.3-0.4-70.6,0.3-106c0.2-8.8-0.1-17.7-0.4-26.6c-0.1-4.4-2.7-7-6.8-7c-4.2,0-7.3,2.9-7.3,7
	c0,2.8,0.4,5.6,0.4,8.4c0,29.4,0,58.9,0,88.3c0,15.6,0,31.1,0,46.7c0,4.4,2.5,7.3,6.4,7.6c3.4,0.2,6.8,0.5,10.1,0.4
	c29.8-0.1,59.7,0.1,89.5-0.2c24.3-0.3,48.7-0.2,73,0.2c22.6,0.4,45.3,0.1,67.9-0.2c20.6-0.3,41.3-0.1,61.9-0.1
	c4.7,0,7.1-2.4,7.3-7.2c0.1-3.3,0.4-6.6,0.4-9.9c0-12.3,0-24.5,0-36.8c0-19.1,0-38.1,0-57.2c0-13,0-25.9,0-38.9c0-3-0.7-5.6-3.4-7.2
	c-5.1-3.1-10.8,0.5-10.8,6.8c0,44,0,88,0,132c0,4.3-0.2,4.5-4.3,4.5C627,675.1,580.3,675.1,533.6,675.2z M534.4,606.4
	c1.7,5.4,3.5,10.7,5.1,16.1c1.1,3.7,3.3,6,7.1,6.8c3.4,0.7,6.8,1.7,10.2,2.1c10,1.3,19.8,0.6,29.3-3.2c12.4-4.9,21-14.1,27.5-25.1
	c10.4-17.6,15.3-37,16.4-57.4c0.2-3.7-0.1-7.4,0.4-11.1c0.4-3.4-2.2-5.9-5.8-5.5c-5.4,0.6-10.9,0.9-16.3,2.1
	c-15.8,3.5-31,8.8-44.7,17.7c-9.2,6-17.4,13.2-23,23c-3.8,6.6-5.3,13.6-6.2,21c-0.1,0.8,0.1,1.8-1,1.8c-1.1,0-0.9-1.1-1-1.9
	c-1.5-8.3-5.4-15.4-10.8-21.7c-6.9-8.2-15.8-14-25.5-18.4c-16.8-7.6-34.4-11.8-52.9-11.9c-4.5,0-6,1.4-5.8,5.9
	c0.4,10.1,1.7,20,4.3,29.8c3.7,14,8.6,27.5,17.4,39.3c8.2,11.1,19,18.2,32.5,21.1c10.2,2.2,20.1,0.1,30-2.6c4.9-1.4,6.7-4.4,8.1-8.8
	C531.3,619.3,532.7,613,534.4,606.4z M533.8,353.9c-1.9-0.3-3.5,0.6-5,1.9c-13.6,12.6-27.1,25.3-40.7,37.9
	c-16.2,15-32.5,30.1-48.7,45.1c-14.3,13.3-28.6,26.6-42.9,39.9c-11.7,10.9-23.5,21.9-35.2,32.8c-3.6,3.4-7.3,6.7-10.8,10.3
	c-2.4,2.4-2.5,5.9-0.8,8.5c1.6,2.4,5.4,3.5,8.3,2.1c1.9-0.9,3.4-2.4,4.9-3.8c11-10.4,22-20.8,33.1-31.1c15.5-14.4,31-28.7,46.5-43.1
	c7.4-6.9,14.8-14,22.2-20.8c10.8-10,21.8-19.9,32.6-29.9c11.4-10.5,22.8-21.1,34.2-31.7c1.7-1.6,3-1.4,4.6,0.1
	c10.8,10.1,21.7,20.2,32.6,30.3c11.4,10.6,22.8,21.2,34.1,31.7c17.5,16.3,35.1,32.5,52.5,48.8c15.6,14.5,31.1,29.1,46.7,43.7
	c2.1,2,4.3,3.8,6.7,5.5c2.8,2,5.7,1.5,8-0.9c2.7-2.9,2.7-6.5-0.4-9.6c-4.3-4.3-8.9-8.2-13.4-12.4c-9.3-8.8-18.4-17.6-27.8-26.3
	c-14.4-13.4-29-26.7-43.5-40.1c-8.7-8-17.3-16.2-26-24.2c-13.6-12.6-27.2-25.2-40.8-37.8c-8.5-8-16.9-16.1-25.4-24.1
	C538,355.2,536.4,353.6,533.8,353.9z"/>
<path class="st0" d="M533.6,675.1c46.7,0,93.4,0,140.1,0c4.1,0,4.3-0.2,4.3-4.5c0-44-0.1-88,0-132c0-6.4,5.6-9.9,10.8-6.8
	c2.7,1.6,3.4,4.2,3.4,7.2c0,13,0,25.9,0,38.9c0,19.1,0,38.1,0,57.2c0,12.3,0,24.5,0,36.8c0,3.3-0.3,6.6-0.4,9.9
	c-0.2,4.7-2.6,7.1-7.3,7.2c-20.6,0-41.3-0.2-61.9,0.1c-22.6,0.3-45.3,0.6-67.9,0.2c-24.3-0.4-48.7-0.4-73-0.2
	c-29.8,0.4-59.7,0.1-89.5,0.2c-3.4,0-6.8-0.2-10.1-0.4c-4-0.3-6.4-3.2-6.4-7.6c0-15.6,0-31.1,0-46.7c0-29.4,0-58.9,0-88.3
	c0-2.8-0.3-5.6-0.4-8.4c0-4.1,3.1-7,7.3-7c4.2,0,6.7,2.6,6.8,7c0.2,8.9,0.5,17.8,0.4,26.6c-0.7,35.3,0,70.6-0.3,106
	c0,4.6,0.1,4.8,4.6,4.8C440.4,675.2,487,675.2,533.6,675.1z"/>
<path class="st0" d="M534.4,606.4c-1.7,6.6-3.1,12.9-5,19.2c-1.4,4.4-3.2,7.4-8.1,8.8c-9.9,2.8-19.8,4.8-30,2.6
	c-13.5-2.9-24.3-10-32.5-21.1c-8.7-11.8-13.7-25.3-17.4-39.3c-2.6-9.8-3.9-19.7-4.3-29.8c-0.2-4.5,1.3-5.9,5.8-5.9
	c18.5,0.1,36.1,4.3,52.9,11.9c9.7,4.4,18.5,10.2,25.5,18.4c5.3,6.3,9.3,13.4,10.8,21.7c0.1,0.7-0.1,1.8,1,1.9c1.1,0,0.9-1.1,1-1.8
	c0.9-7.3,2.5-14.4,6.2-21c5.6-9.8,13.8-17,23-23c13.7-8.9,28.9-14.2,44.7-17.7c5.4-1.2,10.8-1.5,16.3-2.1c3.6-0.4,6.2,2.1,5.8,5.5
	c-0.4,3.7-0.2,7.4-0.4,11.1c-1,20.4-6,39.8-16.4,57.4c-6.5,11-15,20.2-27.5,25.1c-9.6,3.8-19.3,4.5-29.3,3.2
	c-3.4-0.4-6.8-1.4-10.2-2.1c-3.8-0.8-6-3.1-7.1-6.8C537.9,617.1,536.1,611.8,534.4,606.4z M566.6,618.8c8.4,0.2,15.8-2.3,22.5-7.3
	c7.1-5.3,12-12.2,15.9-20.2c6.9-14.3,10.5-29.3,11.6-45.1c0.1-1.5-0.5-2.6-2.2-2.4c-4.8,0.7-9.7,1.4-14.3,2.9
	c-7.3,2.5-14.4,5.1-21.3,8.5c-14.7,7.4-27.1,16.9-31,34.1c-1.3,5.6-1,11.3,0.2,16.9c0.3,1.6,1.3,2,2.6,0.9c0.7-0.6,1.4-1.2,2-1.8
	c8.8-8.7,16.9-18.1,26.3-26.2c3.6-3.1,6.8-6.7,10.8-9.4c1.1-0.8,2.5-1.3,3.6-0.4c1.3,1.1,0.5,2.3-0.3,3.4c-5.7,9.2-12.2,17.7-19,26
	c-4.6,5.7-9.2,11.2-13.9,16.8c-0.6,0.7-1.3,1.4-0.8,2.4c0.5,1,1.6,0.7,2.4,0.7C563.4,618.9,565,618.8,566.6,618.8z M520.3,606.1
	c0.3-5.7-0.4-11.4-2.7-16.7c-4.2-9.2-11.2-15.9-19.9-20.8c-13.6-7.7-28.2-12.3-43.8-14.2c-2.1-0.3-3.2,0.4-2.9,2.5
	c1.6,11.3,3.6,22.6,8.4,33.1c4.3,9.5,8.6,18.8,17,25.6c9.1,7.4,19.2,10.7,30.8,8.7c2.6-0.5,2.9-1.4,1.2-3.3c-2.7-3-5.5-6.1-8.3-9
	c-9.2-9.6-17.9-19.5-25.3-30.6c-0.6-1-1.7-2.1-0.8-3.2c1.1-1.4,2.4-0.3,3.4,0.4c8.8,6.4,17.3,13.4,25.5,20.7c4.5,4,9,8.2,13.5,12.2
	c0.8,0.7,1.8,2.1,3,1.4c1.1-0.6,0.8-2.1,0.9-3.3C520.4,608.5,520.3,607.3,520.3,606.1z"/>
<path class="st0" d="M533.8,353.9c2.6-0.3,4.2,1.3,5.8,2.8c8.5,8,16.9,16.1,25.4,24.1c13.6,12.7,27.2,25.2,40.8,37.8
	c8.7,8.1,17.3,16.2,26,24.2c14.5,13.4,29,26.7,43.5,40.1c9.3,8.7,18.5,17.6,27.8,26.3c4.4,4.2,9,8.2,13.4,12.4
	c3.1,3.1,3.1,6.7,0.4,9.6c-2.3,2.5-5.3,2.9-8,0.9c-2.3-1.7-4.6-3.5-6.7-5.5c-15.6-14.5-31.1-29.1-46.7-43.7
	c-17.5-16.3-35-32.6-52.5-48.8c-11.4-10.6-22.8-21.2-34.1-31.7c-10.9-10.1-21.7-20.2-32.6-30.3c-1.6-1.5-3-1.7-4.6-0.1
	c-11.4,10.6-22.7,21.2-34.2,31.7c-10.8,10-21.8,19.9-32.6,29.9c-7.5,6.9-14.8,13.9-22.2,20.8c-15.5,14.4-31,28.7-46.5,43.1
	c-11.1,10.3-22.1,20.7-33.1,31.1c-1.5,1.4-3,3-4.9,3.8c-2.9,1.3-6.7,0.2-8.3-2.1c-1.8-2.6-1.7-6.1,0.8-8.5
	c3.5-3.6,7.2-6.9,10.8-10.3c11.7-11,23.5-21.9,35.2-32.8c14.3-13.3,28.6-26.6,42.9-39.9c16.2-15,32.5-30.1,48.7-45.1
	c13.6-12.6,27.2-25.2,40.7-37.9C530.3,354.5,531.9,353.6,533.8,353.9z"/>
<path class="st1" d="M566.6,618.8c-1.6,0-3.2,0-4.8,0c-0.9,0-1.9,0.3-2.4-0.7c-0.5-1,0.2-1.7,0.8-2.4c4.6-5.6,9.3-11.2,13.9-16.8
	c6.8-8.4,13.3-16.8,19-26c0.7-1.2,1.6-2.4,0.3-3.4c-1.1-0.9-2.5-0.4-3.6,0.4c-4,2.7-7.2,6.3-10.8,9.4c-9.4,8.1-17.5,17.5-26.3,26.2
	c-0.6,0.6-1.3,1.2-2,1.8c-1.3,1.1-2.2,0.7-2.6-0.9c-1.2-5.6-1.5-11.3-0.2-16.9c3.9-17.1,16.2-26.7,31-34.1
	c6.9-3.5,14.1-6.1,21.3-8.5c4.6-1.6,9.5-2.2,14.3-2.9c1.8-0.3,2.3,0.8,2.2,2.4c-1.1,15.7-4.7,30.8-11.6,45.1
	c-3.8,8-8.8,14.8-15.9,20.2C582.4,616.6,574.9,619.1,566.6,618.8z"/>
<path class="st1" d="M520.3,606.1c0,1.2,0,2.4,0,3.6c0,1.2,0.3,2.7-0.9,3.3c-1.2,0.6-2.2-0.7-3-1.4c-4.6-4-9-8.2-13.5-12.2
	c-8.2-7.3-16.6-14.2-25.5-20.7c-1-0.7-2.3-1.8-3.4-0.4c-0.9,1.1,0.2,2.2,0.8,3.2c7.4,11,16.1,21,25.3,30.6c2.8,2.9,5.6,6,8.3,9
	c1.7,1.9,1.5,2.8-1.2,3.3c-11.6,2.1-21.7-1.3-30.8-8.7c-8.4-6.8-12.7-16.1-17-25.6c-4.8-10.6-6.8-21.8-8.4-33.1
	c-0.3-2.1,0.7-2.8,2.9-2.5c15.5,1.9,30.1,6.5,43.8,14.2c8.7,4.9,15.7,11.6,19.9,20.8C520,594.6,520.6,600.3,520.3,606.1z"/>
</svg>
