<svg xmlns="http://www.w3.org/2000/svg" width="128" height="128" viewBox="0 0 128 128" fill="none">
  <defs>
    <linearGradient id="g" x1="0" y1="0" x2="1" y2="1">
      <stop offset="0%" stop-color="#16a34a"/>
      <stop offset="100%" stop-color="#22c55e"/>
    </linearGradient>
  </defs>
  <rect width="128" height="128" rx="24" fill="url(#g)"/>
  <g fill="#ffffff">
    <path d="M44 85c-12 0-21-9-21-21s9-21 21-21c6.6 0 12.2 2.9 16 7.4l-6.2 5.1C51 52.8 48 51 44 51c-7.2 0-13 5.8-13 13s5.8 13 13 13c4 0 7-1.8 9.8-4.5l6.2 5.1C56.2 82.1 50.6 85 44 85z"/>
    <path d="M84 43c12 0 21 9 21 21s-9 21-21 21c-11.1 0-19.9-8.5-20.9-19.3l8-.7C72 72 77.1 77 84 77c7.2 0 13-5.8 13-13s-5.8-13-13-13c-5.1 0-9.5 3-11.5 7.3l-7.1-3C69.4 48.2 76.1 43 84 43z"/>
  </g>
</svg>

